<svg xmlns="http://www.w3.org/2000/svg" viewBox="0 0 256 256" role="img" aria-labelledby="title desc">
  <title id="title">Al-Hayat AptitudePrep Logo</title>
  <desc id="desc">A modern AH monogram with an open book, upward learning mark and connected aptitude nodes.</desc>
  <defs>
    <linearGradient id="markGradient" x1="26" x2="230" y1="22" y2="234" gradientUnits="userSpaceOnUse">
      <stop stop-color="#2563d9"/>
      <stop offset="0.55" stop-color="#0f766e"/>
      <stop offset="1" stop-color="#0b4f6c"/>
    </linearGradient>
    <filter id="softShadow" x="-20%" y="-20%" width="140%" height="140%">
      <feDropShadow dx="0" dy="12" stdDeviation="12" flood-color="#0f172a" flood-opacity="0.16"/>
    </filter>
  </defs>
  <rect width="256" height="256" rx="54" fill="url(#markGradient)" filter="url(#softShadow)"/>
  <path d="M52 79c26-12 52-10 76 6 24-16 50-18 76-6v89c-24-10-50-8-76 8-26-16-52-18-76-8V79Z" fill="#ffffff" opacity="0.96"/>
  <path d="M128 85v91" fill="none" stroke="#0f766e" stroke-width="8" stroke-linecap="round"/>
  <path d="M73 107h38M73 128h38M145 107h38M145 128h38" fill="none" stroke="#1d4ed8" stroke-width="8" stroke-linecap="round" opacity="0.88"/>
  <path d="M76 190h104" fill="none" stroke="#ffffff" stroke-width="11" stroke-linecap="round" opacity="0.75"/>
  <path d="M80 190l32-42 23 25 39-53" fill="none" stroke="#ffffff" stroke-width="12" stroke-linecap="round" stroke-linejoin="round"/>
  <circle cx="80" cy="190" r="8" fill="#ffffff"/>
  <circle cx="112" cy="148" r="8" fill="#ffffff"/>
  <circle cx="135" cy="173" r="8" fill="#ffffff"/>
  <circle cx="174" cy="120" r="8" fill="#ffffff"/>
  <text x="128" y="69" fill="#ffffff" font-family="Arial, Helvetica, sans-serif" font-size="42" font-weight="900" text-anchor="middle" letter-spacing="-2">AH</text>
</svg>
